<svg xmlns="http://www.w3.org/2000/svg" width="15.625" height="20" viewBox="0 0 15.625 20">
  <path id="Path_20924" data-name="Path 20924" d="M12.252,6.25h2.772a1,1,0,0,1,.488.124.955.955,0,0,1,.358.343.9.9,0,0,1,0,.938L8.72,19.531a.962.962,0,0,1-.359.344,1.012,1.012,0,0,1-.914.031.969.969,0,0,1-.339-.262.922.922,0,0,1-.187-.378.9.9,0,0,1,0-.418L8.8,11.25H4.752L1.347,13.52a.625.625,0,1,1-.693-1.04l2.5-1.666a.923.923,0,0,1-.11-.231.9.9,0,0,1-.033-.4L4.308.813A.929.929,0,0,1,4.633.232,1,1,0,0,1,5.275,0h5.849a1.01,1.01,0,0,1,.431.1.971.971,0,0,1,.343.27.925.925,0,0,1,.184.388.906.906,0,0,1-.013.426L10.436,5.958,14.153,3.48a.625.625,0,0,1,.693,1.04Zm-3.587.889L9.1,5.859,10.671,1.25H5.559L4.345,10h.028ZM6.627,10l3.75-2.5h4.083L8.7,17.067l1.36-5.532L10.438,10Z" transform="translate(-0.375)" fill="#fff" fill-rule="evenodd"/>
</svg>
